<svg width="375" height="410" viewBox="0 0 375 410" fill="none" xmlns="http://www.w3.org/2000/svg">
<path d="M361.809 179.705L221.182 115.836L375 29.8447L361.809 179.705Z" fill="url(#paint0_linear_82_19)"/>
<path d="M361.688 110.323L273.801 119.607C271.316 111.011 266.966 102.931 260.752 95.3662C254.715 87.8017 246.548 81.6985 236.25 77.0566C225.952 72.4147 213.346 70.0938 198.432 70.0938C178.369 70.0938 161.501 74.3059 147.83 82.73C134.336 91.1541 127.678 102.071 127.856 115.481C127.678 127 132.028 136.369 140.906 143.59C149.961 150.811 164.875 156.742 185.648 161.384L255.425 175.825C294.131 183.905 322.894 196.714 341.714 214.25C360.712 231.785 370.3 254.737 370.477 283.104C370.3 308.032 362.754 330.038 347.84 349.122C333.103 368.033 312.596 382.818 286.319 393.477C260.041 404.136 229.858 409.466 195.768 409.466C145.7 409.466 105.396 399.322 74.8573 379.036C44.3188 358.577 26.1199 330.124 20.2608 293.677L114.273 284.909C118.534 302.789 127.589 316.285 141.438 325.396C155.287 334.508 173.308 339.064 195.502 339.064C218.406 339.064 236.782 334.508 250.631 325.396C264.658 316.285 271.671 305.024 271.671 291.614C271.671 280.267 267.143 270.897 258.088 263.505C249.211 256.112 235.362 250.439 216.542 246.485L146.765 232.301C107.526 224.393 78.497 211.069 59.6768 192.33C40.8565 173.418 31.5352 149.521 31.7127 120.639C31.5352 96.2258 38.3708 75.0795 52.2197 57.1997C66.2461 39.148 85.6878 25.2224 110.545 15.4229C135.579 5.45152 164.431 0.46582 197.1 0.46582C245.038 0.46582 282.768 10.3513 310.288 30.1222C337.986 49.8931 355.119 76.6268 361.688 110.323Z" fill="url(#paint1_linear_82_19)"/>
<path d="M13.1908 218.767L153.818 282.636L0 368.627L13.1908 218.767Z" fill="url(#paint2_linear_82_19)"/>
<mask id="mask0_82_19" style="mask-type:alpha" maskUnits="userSpaceOnUse" x="0" y="0" width="375" height="410">
<path d="M361.809 179.705L221.182 115.836L375 29.8447L361.809 179.705Z" fill="url(#paint3_linear_82_19)"/>
<path d="M361.688 110.323L273.801 119.607C271.316 111.011 266.966 102.931 260.752 95.3662C254.715 87.8017 246.548 81.6985 236.25 77.0566C225.952 72.4147 213.346 70.0938 198.432 70.0938C178.369 70.0938 161.501 74.3059 147.83 82.73C134.336 91.1541 127.678 102.071 127.856 115.481C127.678 127 132.028 136.369 140.906 143.59C149.961 150.811 164.875 156.742 185.648 161.384L255.425 175.825C294.131 183.905 322.894 196.714 341.714 214.25C360.712 231.785 370.3 254.737 370.477 283.104C370.3 308.032 362.754 330.038 347.84 349.122C333.103 368.033 312.596 382.818 286.319 393.477C260.041 404.136 229.858 409.466 195.768 409.466C145.699 409.466 105.396 399.322 74.8573 379.036C44.3188 358.577 26.1199 330.124 20.2608 293.677L114.273 284.909C118.534 302.789 127.589 316.285 141.438 325.396C155.287 334.508 173.308 339.064 195.502 339.064C218.406 339.064 236.782 334.508 250.631 325.396C264.658 316.285 271.671 305.024 271.671 291.614C271.671 280.267 267.143 270.897 258.088 263.505C249.211 256.112 235.362 250.439 216.542 246.485L146.765 232.301C107.526 224.393 78.497 211.069 59.6768 192.33C40.8565 173.418 31.5352 149.521 31.7127 120.639C31.5352 96.2258 38.3708 75.0795 52.2197 57.1997C66.2461 39.148 85.6878 25.2224 110.545 15.4229C135.579 5.45152 164.431 0.46582 197.1 0.46582C245.038 0.46582 282.768 10.3513 310.288 30.1222C337.986 49.8931 355.119 76.6268 361.688 110.323Z" fill="url(#paint4_linear_82_19)"/>
<path d="M13.1908 218.767L153.818 282.636L0 368.627L13.1908 218.767Z" fill="url(#paint5_linear_82_19)"/>
</mask>
<g mask="url(#mask0_82_19)">
<path d="M404.689 207.18L255.944 110.932L331.442 67.2439L392.818 -9.53418L404.689 207.18Z" fill="url(#paint6_linear_82_19)"/>
<path d="M383.856 100.592L294.236 109.898C291.701 101.281 287.265 93.1812 280.929 85.5982C274.773 78.0152 266.444 71.8971 255.944 67.2439C245.443 62.5906 232.588 60.264 217.38 60.264C196.921 60.264 179.721 64.4864 165.78 72.9311C152.02 81.3759 145.231 92.3195 145.412 105.762C145.231 117.309 149.667 126.702 158.719 133.94C167.952 141.178 183.161 147.124 204.344 151.777L275.497 166.254C314.966 174.354 385.498 189.601 404.689 207.18C424.061 224.759 392.637 245.359 392.818 273.795C392.637 298.784 384.942 320.844 369.734 339.974C354.707 358.932 333.795 373.753 307 384.438C280.205 395.123 249.425 400.466 214.664 400.466C163.608 400.466 122.508 390.298 91.3679 369.961C60.2277 349.453 41.6691 320.93 35.6945 284.394L131.561 275.605C135.906 293.528 145.14 307.057 159.262 316.191C173.384 325.325 191.761 329.892 214.392 329.892C237.747 329.892 256.487 325.325 270.609 316.191C284.912 307.057 292.063 295.768 292.063 282.326C292.063 270.951 287.446 261.559 278.213 254.148C269.161 246.737 255.038 241.05 235.847 237.086L164.694 222.868C124.682 214.94 95.079 201.584 75.8879 182.799C56.6969 163.841 47.1913 139.886 47.3724 110.932C47.1913 86.4599 54.1621 65.2619 68.2838 47.3384C82.5865 29.2426 102.413 15.283 127.759 5.4595C153.287 -4.53629 182.709 -9.53418 216.022 -9.53418C264.905 -9.53418 303.38 0.375446 331.442 20.1947C359.685 40.0139 377.158 66.813 383.856 100.592Z" fill="url(#paint7_linear_82_19)"/>
<path d="M10 175.39L193.99 303.823H75.8879L21.8703 339.029L10 175.39Z" fill="url(#paint8_linear_82_19)"/>
</g>
<defs>
<linearGradient id="paint0_linear_82_19" x1="187.5" y1="0.46582" x2="187.5" y2="409.466" gradientUnits="userSpaceOnUse">
<stop stop-color="#18335D"/>
<stop offset="1" stop-color="#594813"/>
</linearGradient>
<linearGradient id="paint1_linear_82_19" x1="187.5" y1="0.46582" x2="187.5" y2="409.466" gradientUnits="userSpaceOnUse">
<stop stop-color="#18335D"/>
<stop offset="1" stop-color="#594813"/>
</linearGradient>
<linearGradient id="paint2_linear_82_19" x1="187.5" y1="0.46582" x2="187.5" y2="409.466" gradientUnits="userSpaceOnUse">
<stop stop-color="#18335D"/>
<stop offset="1" stop-color="#594813"/>
</linearGradient>
<linearGradient id="paint3_linear_82_19" x1="187.5" y1="0.46582" x2="187.5" y2="409.466" gradientUnits="userSpaceOnUse">
<stop stop-color="#594813"/>
<stop offset="1" stop-color="#326BC3"/>
</linearGradient>
<linearGradient id="paint4_linear_82_19" x1="187.5" y1="0.46582" x2="187.5" y2="409.466" gradientUnits="userSpaceOnUse">
<stop stop-color="#594813"/>
<stop offset="1" stop-color="#326BC3"/>
</linearGradient>
<linearGradient id="paint5_linear_82_19" x1="187.5" y1="0.46582" x2="187.5" y2="409.466" gradientUnits="userSpaceOnUse">
<stop stop-color="#594813"/>
<stop offset="1" stop-color="#326BC3"/>
</linearGradient>
<linearGradient id="paint6_linear_82_19" x1="312" y1="117" x2="186.717" y2="339.404" gradientUnits="userSpaceOnUse">
<stop stop-color="#0064E0"/>
<stop offset="1" stop-color="#FFCE34"/>
</linearGradient>
<linearGradient id="paint7_linear_82_19" x1="312" y1="117" x2="186.717" y2="339.404" gradientUnits="userSpaceOnUse">
<stop stop-color="#0064E0"/>
<stop offset="1" stop-color="#FFCE34"/>
</linearGradient>
<linearGradient id="paint8_linear_82_19" x1="312" y1="117" x2="186.717" y2="339.404" gradientUnits="userSpaceOnUse">
<stop stop-color="#0064E0"/>
<stop offset="1" stop-color="#FFCE34"/>
</linearGradient>
</defs>
</svg>
